<?xml version="1.0" encoding="UTF-8" standalone="no"?>
<!DOCTYPE svg PUBLIC "-//W3C//DTD SVG 1.1//EN" "http://www.w3.org/Graphics/SVG/1.1/DTD/svg11.dtd">
<svg xmlns="http://www.w3.org/2000/svg" version="1.1" viewBox="0.00 0.00 500.00 500.00">
<g stroke-width="2.00" fill="none" stroke-linecap="butt">
<path stroke="#307465" vector-effect="non-scaling-stroke" d="
  M 73.54 331.03
  Q 73.19 329.59 72.77 329.17"
/>
<path stroke="#307465" vector-effect="non-scaling-stroke" d="
  M 318.42 348.89
  Q 319.12 348.12 317.42 345.38"
/>
<path stroke="#307465" vector-effect="non-scaling-stroke" d="
  M 312.09 353.66
  Q 313.79 355.82 312.22 358.89"
/>
<path stroke="#307465" vector-effect="non-scaling-stroke" d="
  M 303.23 350.24
  L 302.18 345.13"
/>
</g>
<path fill="#f8b00e" d="
  M 239.70 145.30
  L 245.56 108.31
  A 0.38 0.38 0.0 0 1 246.31 108.30
  L 252.74 144.72
  A 0.38 0.38 0.0 0 1 252.39 145.17
  L 240.10 145.74
  A 0.38 0.38 0.0 0 1 239.70 145.30
  Z"
/>
<path fill="#f8b00e" d="
  M 214.36 150.39
  L 214.05 124.37
  A 0.41 0.41 0.0 0 1 214.84 124.22
  L 224.05 147.38
  A 0.41 0.41 0.0 0 1 223.79 147.92
  L 214.90 150.78
  A 0.41 0.41 0.0 0 1 214.36 150.39
  Z"
/>
<path fill="#f8b00e" d="
  M 274.80 147.21
  L 283.44 124.70
  A 0.51 0.51 0.0 0 1 284.43 124.88
  L 284.67 149.87
  A 0.51 0.51 0.0 0 1 284.03 150.37
  L 275.14 147.88
  A 0.51 0.51 0.0 0 1 274.80 147.21
  Z"
/>
<path fill="#f8b00e" d="
  M 286.66 150.16
  L 301.14 130.67
  A 0.59 0.59 0.0 0 1 302.19 131.15
  L 296.73 154.81
  A 0.59 0.59 0.0 0 1 295.91 155.22
  L 286.89 151.05
  A 0.59 0.59 0.0 0 1 286.66 150.16
  Z"
/>
<path fill="#f8b00e" d="
  M 201.31 155.49
  L 196.35 132.05
  A 0.61 0.61 0.0 0 1 197.43 131.55
  L 211.81 150.73
  A 0.61 0.61 0.0 0 1 211.57 151.65
  L 202.16 155.92
  A 0.61 0.61 0.0 0 1 201.31 155.49
  Z"
/>
<path fill="#f8b00e" d="
  M 299.54 155.37
  L 315.32 137.95
  A 0.79 0.79 0.0 0 1 316.64 138.76
  L 308.43 160.63
  A 0.79 0.79 0.0 0 1 307.29 161.03
  L 299.73 156.58
  A 0.79 0.79 0.0 0 1 299.54 155.37
  Z"
/>
<path fill="#f8b00e" d="
  M 190.21 161.73
  L 181.00 138.76
  Q 180.48 137.46 181.74 138.25
  Q 181.91 138.35 182.45 138.86
  Q 191.10 146.91 196.30 152.46
  Q 197.73 153.98 199.02 156.49
  Q 199.26 156.97 198.81 157.26
  L 191.36 162.09
  A 0.78 0.78 0.0 0 1 190.21 161.73
  Z"
/>
<path fill="#f8b00e" d="
  M 149.61 147.86
  C 158.62 155.03 170.13 161.97 179.74 170.25
  A 0.54 0.53 43.9 0 1 179.76 171.04
  L 172.58 177.96
  Q 171.22 179.27 170.08 177.76
  L 147.11 147.23
  Q 146.53 146.45 147.46 146.74
  Q 148.66 147.11 149.61 147.86
  Z"
/>
<path fill="#f8b00e" d="
  M 344.26 159.71
  C 348.34 156.44 353.33 153.68 357.65 150.71
  Q 358.74 149.96 358.32 151.21
  Q 358.01 152.16 356.89 153.43
  C 348.04 163.40 341.72 172.86 333.11 181.56
  A 0.57 0.57 0.0 0 1 332.31 181.56
  L 325.85 175.00
  A 1.13 1.12 -40.2 0 1 326.00 173.30
  C 332.25 168.83 338.33 164.47 344.26 159.71
  Z"
/>
<path fill="#f8b00e" d="
  M 240.34 178.93
  L 240.24 154.50
  A 0.83 0.83 0.0 0 1 241.07 153.67
  L 254.66 153.63
  A 0.83 0.83 0.0 0 1 255.49 154.48
  L 254.99 178.31
  A 0.83 0.83 0.0 0 1 254.20 179.12
  L 241.21 179.76
  A 0.83 0.83 0.0 0 1 240.34 178.93
  Z"
/>
<path fill="#f8b00e" d="
  M 257.16 178.53
  L 257.89 154.92
  A 1.06 1.06 0.0 0 1 259.12 153.90
  L 279.17 157.15
  A 1.06 1.06 0.0 0 1 279.98 158.59
  L 271.03 181.12
  A 1.06 1.06 0.0 0 1 269.85 181.77
  L 258.03 179.60
  A 1.06 1.06 0.0 0 1 257.16 178.53
  Z"
/>
<path fill="#f8b00e" d="
  M 231.13 156.60
  L 234.27 179.60
  A 1.39 1.39 0.0 0 1 233.25 181.13
  L 227.81 182.56
  A 1.39 1.39 0.0 0 1 226.15 181.67
  L 218.32 159.36
  A 1.39 1.39 0.0 0 1 219.34 157.54
  L 229.47 155.42
  A 1.39 1.39 0.0 0 1 231.13 156.60
  Z"
/>
<path fill="#f8b00e" d="
  M 280.7644 185.1150
  A 0.55 0.55 0.0 0 1 280.0511 185.4251
  L 273.4452 182.8230
  A 0.55 0.55 0.0 0 1 273.1350 182.1097
  L 282.2756 158.9050
  A 0.55 0.55 0.0 0 1 282.9889 158.5949
  L 289.5948 161.1970
  A 0.55 0.55 0.0 0 1 289.9050 161.9103
  L 280.7644 185.1150
  Z"
/>
<path fill="#f8b00e" d="
  M 215.57 186.73
  L 205.20 163.86
  A 0.58 0.58 0.0 0 1 205.50 163.09
  L 215.29 159.00
  A 0.58 0.58 0.0 0 1 216.07 159.36
  L 223.57 183.18
  A 0.58 0.58 0.0 0 1 223.25 183.88
  L 216.34 187.02
  A 0.58 0.58 0.0 0 1 215.57 186.73
  Z"
/>
<path fill="#f8b00e" d="
  M 283.73 186.12
  L 293.10 164.55
  A 1.37 1.37 0.0 0 1 295.00 163.89
  L 299.82 166.43
  A 1.37 1.37 0.0 0 1 300.35 168.37
  L 287.75 188.50
  A 1.37 1.37 0.0 0 1 285.81 188.90
  L 284.21 187.80
  A 1.37 1.37 0.0 0 1 283.73 186.12
  Z"
/>
<path fill="#f8b00e" d="
  M 207.98 191.01
  L 196.60 169.08
  A 1.07 1.07 0.0 0 1 197.02 167.66
  L 201.92 164.85
  A 1.07 1.07 0.0 0 1 203.43 165.34
  L 213.38 187.77
  A 1.07 1.07 0.0 0 1 213.00 189.09
  L 209.52 191.41
  A 1.07 1.07 0.0 0 1 207.98 191.01
  Z"
/>
<path fill="#f8b00e" d="
  M 315.41 178.18
  L 298.18 196.10
  A 1.00 1.00 0.0 0 1 296.86 196.21
  L 290.23 191.35
  A 1.00 1.00 0.0 0 1 289.97 190.03
  L 302.72 168.75
  A 1.00 1.00 0.0 0 1 304.18 168.46
  L 315.29 176.68
  A 1.00 1.00 0.0 0 1 315.41 178.18
  Z"
/>
<path fill="#f8b00e" d="
  M 187.20 175.95
  L 203.35 194.14
  A 0.96 0.96 0.0 0 1 203.26 195.50
  L 196.90 201.06
  A 0.96 0.96 0.0 0 1 195.58 201.00
  L 178.32 182.80
  A 0.96 0.96 0.0 0 1 178.45 181.37
  L 185.90 175.82
  A 0.96 0.96 0.0 0 1 187.20 175.95
  Z"
/>
<path fill="#f8b00e" d="
  M 325.47 188.87
  L 306.82 205.63
  A 0.92 0.92 0.0 0 1 305.48 205.51
  L 299.68 198.09
  A 0.92 0.92 0.0 0 1 299.76 196.87
  L 317.42 179.35
  A 0.92 0.92 0.0 0 1 318.77 179.41
  L 325.57 187.60
  A 0.92 0.92 0.0 0 1 325.47 188.87
  Z"
/>
<path fill="#f8b00e" d="
  M 152.17 203.69
  L 132.95 187.00
  A 0.89 0.89 0.0 0 1 133.85 185.49
  L 157.36 194.19
  A 0.89 0.89 0.0 0 1 157.84 195.45
  L 153.54 203.44
  A 0.89 0.89 0.0 0 1 152.17 203.69
  Z"
/>
<path fill="#f8b00e" d="
  M 174.32 187.67
  L 193.70 204.86
  A 0.31 0.31 0.0 0 1 193.75 205.27
  L 188.29 213.22
  A 0.31 0.31 0.0 0 1 187.90 213.32
  L 164.36 201.47
  A 0.31 0.31 0.0 0 1 164.24 201.02
  L 173.86 187.72
  A 0.31 0.31 0.0 0 1 174.32 187.67
  Z"
/>
<path fill="#f8b00e" d="
  M 188.53 243.35
  C 189.88 221.37 203.46 202.98 223.51 194.32
  C 260.44 178.36 303.01 197.99 310.49 238.93
  Q 310.55 239.24 310.24 239.30
  Q 281.86 245.05 253.76 251.55
  Q 246.42 253.26 236.22 251.77
  C 220.79 249.53 205.23 246.21 189.73 244.75
  Q 188.45 244.63 188.53 243.35
  Z"
/>
<path fill="#f8b00e" d="
  M 348.35 205.17
  L 344.79 197.78
  A 0.84 0.83 68.8 0 1 345.30 196.62
  Q 356.90 193.18 368.03 189.10
  Q 369.07 188.72 369.97 188.76
  A 0.40 0.39 -65.2 0 1 370.22 189.44
  C 366.67 192.85 363.20 196.04 359.11 198.96
  Q 354.38 202.35 349.70 205.53
  A 0.93 0.92 59.8 0 1 348.35 205.17
  Z"
/>
<path fill="#f8b00e" d="
  M 335.74 202.66
  L 312.28 214.07
  A 0.64 0.64 0.0 0 1 311.47 213.85
  L 307.73 208.36
  A 0.64 0.64 0.0 0 1 307.83 207.53
  L 327.06 190.32
  A 0.64 0.64 0.0 0 1 328.00 190.43
  L 335.98 201.71
  A 0.64 0.64 0.0 0 1 335.74 202.66
  Z"
/>
<path fill="#f8b00e" d="
  M 146.92 216.76
  L 126.90 201.82
  A 0.51 0.51 0.0 0 1 127.29 200.91
  L 151.94 204.94
  A 0.51 0.51 0.0 0 1 152.33 205.64
  L 147.70 216.55
  A 0.51 0.51 0.0 0 1 146.92 216.76
  Z"
/>
<path fill="#f8b00e" d="
  M 350.19 206.68
  L 374.38 201.93
  A 0.84 0.84 0.0 0 1 375.01 203.46
  L 354.40 216.99
  A 0.84 0.84 0.0 0 1 353.16 216.61
  L 349.57 207.82
  A 0.84 0.84 0.0 0 1 350.19 206.68
  Z"
/>
<path fill="#f8b00e" d="
  M 181.08 226.43
  L 157.33 219.88
  A 0.86 0.86 0.0 0 1 156.76 218.72
  L 162.82 204.47
  A 0.86 0.86 0.0 0 1 164.00 204.04
  L 186.02 215.03
  A 0.86 0.86 0.0 0 1 186.42 216.15
  L 182.10 225.95
  A 0.86 0.86 0.0 0 1 181.08 226.43
  Z"
/>
<path fill="#f8b00e" d="
  M 314.00 217.10
  L 337.37 205.22
  A 0.35 0.35 0.0 0 1 337.85 205.39
  L 342.45 216.01
  A 0.35 0.35 0.0 0 1 342.25 216.48
  L 317.51 225.24
  A 0.35 0.35 0.0 0 1 317.07 225.05
  L 313.84 217.55
  A 0.35 0.35 0.0 0 1 314.00 217.10
  Z"
/>
<path fill="#f8b00e" d="
  M 356.56 228.13
  L 353.83 218.29
  A 0.31 0.31 0.0 0 1 354.12 217.90
  L 381.44 217.17
  A 0.31 0.31 0.0 0 1 381.58 217.77
  L 356.99 228.33
  A 0.31 0.31 0.0 0 1 356.56 228.13
  Z"
/>
<path fill="#f8b00e" d="
  M 144.09 228.67
  L 121.03 217.95
  A 0.35 0.35 0.0 0 1 121.19 217.28
  L 146.61 218.02
  A 0.35 0.35 0.0 0 1 146.94 218.45
  L 144.58 228.43
  A 0.35 0.35 0.0 0 1 144.09 228.67
  Z"
/>
<path fill="#f8b00e" d="
  M 318.65 227.32
  L 342.63 218.93
  A 0.78 0.78 0.0 0 1 343.64 219.47
  L 348.09 236.80
  A 0.78 0.78 0.0 0 1 347.36 237.77
  L 321.54 238.54
  A 0.78 0.78 0.0 0 1 320.76 237.96
  L 318.16 228.26
  A 0.78 0.78 0.0 0 1 318.65 227.32
  Z"
/>
<path fill="#f8b00e" d="
  M 177.78 243.42
  L 152.70 242.18
  A 0.62 0.62 0.0 0 1 152.12 241.44
  L 155.74 222.54
  A 0.62 0.62 0.0 0 1 156.52 222.06
  L 180.63 229.03
  A 0.62 0.62 0.0 0 1 181.07 229.75
  L 178.42 242.93
  A 0.62 0.62 0.0 0 1 177.78 243.42
  Z"
/>
<path fill="#14a28a" d="
  M 140.22 261.79
  C 139.41 261.74 137.94 260.54 136.91 260.18
  Q 136.37 259.99 136.54 259.44
  Q 136.84 258.45 137.98 258.11
  Q 158.33 252.12 178.13 254.83
  C 187.79 256.16 199.76 258.94 210.66 260.61
  C 226.13 262.99 242.04 266.57 257.57 262.35
  C 274.18 257.84 286.78 254.44 301.95 251.49
  Q 311.82 249.57 320.42 249.32
  C 344.38 248.63 368.67 251.82 390.64 261.19
  Q 393.16 262.27 390.47 261.75
  Q 388.37 261.35 385.11 261.04
  Q 363.85 259.01 342.58 260.23
  C 320.97 261.47 301.44 268.43 281.57 275.15
  C 260.08 282.41 238.01 284.98 215.72 278.69
  C 190.73 271.63 166.38 263.27 140.22 261.79
  Z"
/>
<path fill="#4b4540" d="
  M 73.54 331.03
  Q 73.19 329.59 72.77 329.17
  L 75.89 324.43
  Q 76.50 323.50 76.78 324.58
  C 78.14 329.68 84.31 331.28 89.00 331.17
  Q 103.64 330.83 112.56 321.06
  Q 115.23 318.13 113.79 315.05
  C 111.16 309.43 100.53 308.17 95.25 308.91
  C 92.07 309.36 84.64 312.85 84.59 305.92
  Q 84.59 305.16 84.20 305.82
  C 81.41 310.54 77.92 316.43 76.99 322.21
  Q 76.91 322.71 76.42 322.60
  Q 74.58 322.17 73.64 323.93
  C 68.17 334.16 62.86 343.54 59.75 353.50
  Q 59.61 353.92 59.18 354.05
  Q 54.36 355.49 52.42 351.79
  C 50.07 347.28 51.67 342.03 53.55 337.91
  C 57.73 328.73 63.69 319.99 69.32 309.75
  C 76.51 296.70 84.51 284.12 92.83 271.77
  Q 93.16 271.29 93.18 270.85
  A 0.47 0.47 0.0 0 0 92.57 270.37
  Q 88.81 271.59 85.00 272.46
  C 77.89 274.09 79.69 261.43 84.53 260.74
  Q 96.48 259.03 108.50 257.92
  C 117.20 257.11 124.82 257.04 132.59 259.91
  C 137.01 261.54 141.82 266.96 142.60 271.63
  C 143.98 279.80 138.44 288.79 132.15 293.61
  Q 122.54 300.98 110.94 303.26
  Q 110.04 303.44 110.89 303.79
  Q 119.97 307.54 123.77 314.89
  C 126.63 320.42 125.28 326.05 121.07 330.33
  C 111.65 339.89 97.03 342.65 84.26 340.50
  C 79.51 339.70 73.29 336.69 73.54 331.03
  Z
  M 106.58 269.56
  C 101.09 279.35 94.61 288.53 89.32 298.49
  Q 88.95 299.18 89.71 298.95
  C 103.68 294.63 119.07 291.55 129.64 280.40
  C 135.11 274.64 132.81 267.95 124.74 267.31
  Q 117.03 266.70 109.35 267.69
  C 107.91 267.88 107.25 268.36 106.58 269.56
  Z"
/>
<path fill="#4b4540" d="
  M 318.42 348.89
  Q 319.12 348.12 317.42 345.38
  C 318.79 342.26 318.34 335.74 314.98 333.72
  A 1.22 1.21 -56.9 0 0 313.37 334.06
  Q 311.75 336.36 311.04 339.21
  Q 309.12 346.96 312.09 353.66
  Q 313.79 355.82 312.22 358.89
  Q 305.38 358.12 303.23 350.24
  L 302.18 345.13
  Q 301.71 335.94 302.98 332.24
  C 304.35 328.27 306.24 325.89 308.72 322.64
  Q 309.18 322.03 308.49 322.35
  Q 306.79 323.15 304.74 324.72
  Q 293.34 333.40 280.89 336.59
  C 273.63 338.45 260.38 335.00 261.43 325.18
  Q 261.46 324.88 261.23 325.09
  C 254.15 331.48 239.12 342.54 230.11 333.84
  C 228.70 332.49 228.00 330.75 228.15 328.86
  A 0.36 0.35 -17.4 0 0 227.57 328.56
  C 222.79 332.35 211.92 341.71 205.58 336.07
  Q 202.25 333.11 201.79 326.99
  Q 201.74 326.31 201.26 326.80
  C 197.99 330.07 195.61 333.34 191.18 336.43
  C 187.52 338.98 180.85 340.17 177.53 336.23
  Q 172.42 330.19 175.12 323.56
  Q 175.86 321.75 174.35 322.99
  Q 165.91 329.92 156.04 335.03
  C 147.98 339.20 139.45 339.19 133.35 331.68
  C 127.06 323.94 128.96 315.30 134.62 307.50
  Q 136.86 304.42 139.61 302.75
  C 146.91 298.32 158.52 295.68 165.58 302.08
  Q 167.08 303.44 167.44 305.54
  Q 169.22 315.90 159.02 320.04
  C 153.65 322.22 144.63 323.11 141.64 316.74
  A 0.27 0.27 0.0 0 0 141.14 316.75
  C 138.89 322.02 138.07 333.66 147.49 332.17
  C 154.06 331.14 158.65 326.66 164.05 323.30
  C 168.95 320.26 174.20 316.57 177.83 312.26
  C 183.18 305.90 187.17 302.20 194.73 298.93
  Q 204.26 294.79 210.39 302.56
  A 0.78 0.77 51.2 0 0 211.49 302.68
  Q 213.34 301.19 215.40 299.93
  C 218.65 297.93 220.50 302.33 219.74 304.74
  C 217.65 311.43 214.74 317.36 211.97 323.76
  Q 210.99 326.03 210.69 328.43
  A 0.53 0.52 -3.8 0 0 211.35 329.00
  C 216.88 327.56 220.91 324.35 225.59 321.35
  C 227.74 319.97 229.83 317.44 231.31 314.84
  Q 236.46 305.84 244.23 298.64
  Q 245.27 297.67 246.34 298.62
  C 252.27 303.88 246.32 309.81 243.34 314.39
  C 241.65 316.99 236.56 327.94 238.95 330.46
  A 1.99 1.98 -29.5 0 0 240.92 331.00
  C 246.79 329.37 251.58 324.98 256.39 321.46
  C 258.83 319.67 262.10 316.92 263.46 314.23
  Q 266.38 308.41 269.50 303.24
  Q 270.04 302.36 269.01 302.39
  Q 264.33 302.55 261.43 298.98
  A 0.79 0.78 55.3 0 1 261.64 297.80
  C 263.50 296.72 269.85 297.15 271.95 297.17
  A 3.49 3.49 0.0 0 0 274.88 295.66
  C 276.26 293.66 286.17 277.49 289.35 286.55
  Q 291.26 292.00 288.63 297.01
  A 0.86 0.86 0.0 0 0 289.25 298.26
  Q 297.17 299.62 305.21 298.78
  A 0.79 0.79 0.0 0 1 305.89 300.09
  L 303.23 303.17
  A 4.69 4.62 15.3 0 1 300.48 304.71
  C 296.28 305.43 289.64 303.30 285.24 302.54
  A 1.62 1.61 -66.6 0 0 283.69 303.16
  C 282.10 305.28 281.14 307.92 279.78 309.93
  C 277.23 313.74 264.16 330.67 275.01 331.85
  Q 277.80 332.16 280.33 330.97
  Q 294.83 324.19 298.81 321.06
  C 305.08 316.15 314.01 310.19 317.84 303.15
  Q 318.17 302.55 317.49 302.53
  Q 312.32 302.43 308.99 298.50
  Q 308.26 297.65 309.14 296.95
  C 312.34 294.38 314.58 296.85 317.83 297.44
  A 1.34 1.34 0.0 0 0 319.32 296.60
  C 321.36 291.29 322.78 285.77 325.26 280.87
  C 328.61 274.23 332.40 263.41 341.99 265.01
  Q 347.93 266.00 349.26 272.75
  C 350.49 279.01 347.87 284.47 344.91 290.27
  Q 343.12 293.77 341.48 296.20
  Q 340.13 298.19 342.29 297.13
  Q 345.64 295.47 349.28 296.45
  Q 352.07 297.21 352.78 300.01
  L 352.91 300.54
  A 1.71 1.71 0.0 0 1 350.72 302.59
  Q 347.44 301.52 343.99 302.16
  A 2.40 2.40 0.0 0 0 342.05 304.75
  Q 342.62 310.72 346.88 314.90
  A 0.39 0.39 0.0 0 1 346.72 315.55
  C 341.63 317.06 336.62 312.88 336.45 307.76
  Q 336.37 305.43 336.47 303.81
  Q 336.59 301.95 335.34 303.34
  L 317.04 323.76
  A 0.57 0.56 -65.5 0 0 317.39 324.70
  C 321.66 325.18 323.12 327.83 325.60 330.74
  Q 325.93 331.13 326.41 330.94
  C 331.70 328.90 335.88 325.81 340.44 322.91
  C 343.28 321.10 347.86 317.34 349.68 314.43
  Q 352.56 309.81 355.61 305.31
  C 357.12 303.08 359.25 301.02 360.96 298.80
  A 2.17 2.17 0.0 0 1 363.79 298.25
  C 367.52 300.43 367.99 303.64 366.15 307.57
  C 363.21 313.83 359.91 319.99 357.60 326.51
  C 356.85 328.62 357.55 331.24 360.26 330.84
  C 364.07 330.28 368.99 325.98 371.99 323.56
  Q 373.60 322.26 374.57 320.17
  C 378.17 312.42 384.25 303.70 391.33 298.73
  A 1.84 1.84 0.0 0 1 393.88 299.15
  Q 397.29 303.80 393.79 308.54
  C 390.54 312.93 382.61 324.41 383.22 329.84
  A 1.34 1.33 76.0 0 0 385.03 330.93
  C 390.80 328.70 395.44 324.73 400.18 320.91
  C 405.95 316.27 405.47 310.32 408.78 304.34
  C 413.29 296.17 417.66 288.52 423.61 281.28
  C 426.12 278.23 429.63 273.30 433.60 269.61
  C 434.96 268.34 436.71 267.90 437.73 269.88
  C 440.10 274.44 432.46 286.06 429.97 290.33
  C 428.23 293.31 426.29 297.71 423.92 300.96
  C 419.18 307.47 411.33 319.51 411.03 327.33
  C 410.75 334.76 416.74 333.86 420.56 330.05
  Q 427.07 323.55 434.65 318.30
  C 435.59 317.65 436.59 316.69 437.80 316.71
  A 1.75 1.74 -72.6 0 1 439.21 319.43
  C 435.84 324.48 430.79 328.27 426.38 332.38
  C 418.68 339.55 404.87 340.03 402.74 327.05
  A 0.40 0.40 0.0 0 0 402.08 326.81
  C 395.12 332.98 379.20 344.03 372.62 330.31
  Q 372.31 329.67 371.77 330.14
  C 367.39 333.95 361.52 337.38 355.25 336.68
  C 349.17 336.00 347.14 330.23 347.42 324.94
  A 0.24 0.24 0.0 0 0 347.03 324.75
  Q 338.00 332.55 327.18 337.63
  Q 326.71 337.85 326.75 338.37
  Q 327.22 344.85 321.91 348.55
  Q 321.47 348.86 320.94 348.86
  L 318.42 348.89
  Z
  M 334.93 277.22
  C 332.55 283.55 330.59 290.06 328.50 296.41
  Q 327.90 298.24 329.10 296.74
  C 332.62 292.38 342.68 279.46 342.02 273.76
  Q 341.72 271.13 339.20 271.73
  A 2.34 2.31 15.8 0 0 338.11 272.33
  Q 335.96 274.48 334.93 277.22
  Z
  M 161.8410 307.0293
  A 9.94 3.95 -21.3 0 0 151.1452 306.9598
  A 9.94 3.95 -21.3 0 0 143.3190 314.2507
  A 9.94 3.95 -21.3 0 0 154.0148 314.3202
  A 9.94 3.95 -21.3 0 0 161.8410 307.0293
  Z
  M 189.60 328.38
  C 197.34 323.74 203.08 315.57 207.67 307.97
  A 0.84 0.84 0.0 0 0 207.21 306.73
  C 196.99 303.43 186.85 316.64 183.53 324.55
  C 181.15 330.22 185.82 330.64 189.60 328.38
  Z"
/>
<path fill="#4b4540" d="
  M 308.83 278.01
  C 309.84 283.55 311.63 287.04 316.14 291.62
  A 0.47 0.47 0.0 0 1 315.89 292.41
  C 308.51 293.65 303.15 291.09 302.58 283.24
  Q 302.24 278.54 306.18 276.66
  A 1.88 1.87 -17.9 0 1 308.83 278.01
  Z"
/>
<path fill="#14a28a" d="
  M 72.77 329.17
  Q 73.19 329.59 73.54 331.03
  Q 73.19 330.91 73.13 331.26
  C 71.98 339.01 75.03 345.88 84.42 342.17
  Q 86.27 341.44 85.10 343.05
  C 81.36 348.23 71.96 348.52 69.55 342.00
  Q 67.00 335.14 72.77 329.17
  Z"
/>
<path fill="#14a28a" d="
  M 174.48 362.97
  Q 174.63 362.84 174.84 362.03
  Q 176.86 354.01 178.10 346.20
  A 1.63 1.63 0.0 0 1 179.67 344.84
  L 182.15 344.80
  Q 183.31 344.78 183.00 345.89
  L 176.68 368.76
  Q 176.55 369.20 176.10 369.19
  L 172.21 369.10
  A 0.82 0.82 0.0 0 1 171.43 368.49
  L 167.11 352.78
  Q 166.61 350.96 166.09 352.77
  L 161.61 368.45
  A 0.81 0.80 8.2 0 1 160.84 369.02
  L 157.23 369.02
  A 0.83 0.82 81.4 0 1 156.44 368.43
  L 149.60 345.90
  Q 149.35 345.06 150.23 345.05
  L 153.52 345.00
  Q 154.50 344.98 154.70 345.94
  L 158.15 362.22
  Q 158.71 364.88 159.44 362.26
  L 164.09 345.35
  A 0.79 0.79 0.0 0 1 164.87 344.76
  L 168.30 344.85
  A 0.74 0.73 83.3 0 1 169.00 345.41
  L 173.42 362.50
  Q 173.71 363.61 174.48 362.97
  Z"
/>
<path fill="#14a28a" d="
  M 198.94 349.39
  L 198.89 354.43
  A 0.64 0.64 0.0 0 0 199.53 355.07
  L 209.63 355.00
  A 0.64 0.64 0.0 0 1 210.28 355.66
  L 210.20 358.11
  A 0.64 0.64 0.0 0 1 209.56 358.73
  L 199.50 358.79
  A 0.64 0.64 0.0 0 0 198.87 359.42
  L 198.83 364.60
  A 0.64 0.64 0.0 0 0 199.48 365.25
  L 209.74 365.22
  A 0.64 0.64 0.0 0 1 210.38 365.86
  L 210.38 368.34
  A 0.64 0.64 0.0 0 1 209.74 368.98
  L 195.58 369.04
  A 0.64 0.64 0.0 0 1 194.94 368.40
  L 194.99 345.45
  A 0.64 0.64 0.0 0 1 195.63 344.81
  L 210.07 344.92
  A 0.64 0.64 0.0 0 1 210.70 345.56
  L 210.68 348.14
  A 0.64 0.64 0.0 0 1 210.04 348.77
  L 199.58 348.76
  A 0.64 0.64 0.0 0 0 198.94 349.39
  Z"
/>
<path fill="#14a28a" d="
  M 238.16 364.58
  L 227.42 364.61
  A 0.50 0.50 0.0 0 0 226.94 364.97
  L 225.90 368.67
  A 0.50 0.50 0.0 0 1 225.43 369.04
  L 221.45 369.14
  A 0.50 0.50 0.0 0 1 220.97 368.47
  L 229.63 345.19
  A 0.50 0.50 0.0 0 1 230.11 344.87
  L 235.78 345.01
  A 0.50 0.50 0.0 0 1 236.24 345.35
  L 244.10 368.59
  A 0.50 0.50 0.0 0 1 243.62 369.25
  L 240.06 369.17
  A 0.50 0.50 0.0 0 1 239.59 368.79
  L 238.64 364.96
  A 0.50 0.50 0.0 0 0 238.16 364.58
  Z
  M 228.69 360.46
  A 0.45 0.45 0.0 0 0 229.12 361.05
  L 236.60 360.96
  A 0.45 0.45 0.0 0 0 237.02 360.36
  L 233.15 349.34
  A 0.45 0.45 0.0 0 0 232.29 349.35
  L 228.69 360.46
  Z"
/>
<path fill="#14a28a" d="
  M 265.14 349.54
  L 265.26 368.40
  A 0.82 0.82 0.0 0 1 264.43 369.22
  L 261.64 369.20
  A 0.82 0.82 0.0 0 1 260.83 368.37
  L 260.98 349.37
  A 0.82 0.82 0.0 0 0 260.15 348.55
  L 254.58 348.65
  A 0.82 0.82 0.0 0 1 253.74 347.84
  L 253.71 345.90
  A 0.82 0.82 0.0 0 1 254.52 345.06
  L 272.05 344.88
  A 0.82 0.82 0.0 0 1 272.88 345.70
  L 272.88 347.84
  A 0.82 0.82 0.0 0 1 272.07 348.66
  L 265.96 348.71
  A 0.82 0.82 0.0 0 0 265.14 349.54
  Z"
/>
<path fill="#14a28a" d="
  M 302.18 345.13
  L 303.23 350.24
  L 303.44 368.26
  Q 303.46 369.42 302.29 369.37
  L 300.55 369.29
  Q 299.37 369.23 299.37 368.05
  L 299.43 359.65
  A 0.79 0.79 0.0 0 0 298.65 358.86
  L 288.42 358.85
  Q 287.69 358.85 287.69 359.58
  L 287.77 367.79
  Q 287.79 369.11 286.46 369.16
  L 284.48 369.24
  A 1.26 1.25 -0.9 0 1 283.17 367.98
  L 283.27 345.77
  A 0.91 0.91 0.0 0 1 284.18 344.87
  L 286.82 344.89
  Q 287.74 344.89 287.74 345.81
  L 287.75 354.50
  A 0.75 0.75 0.0 0 0 288.50 355.25
  L 298.67 355.23
  A 0.65 0.65 0.0 0 0 299.32 354.58
  L 299.37 345.60
  Q 299.37 345.06 299.90 344.95
  Q 300.74 344.79 302.18 345.13
  Z"
/>
<path fill="#14a28a" d="
  M 317.42 345.38
  Q 319.12 348.12 318.42 348.89
  Q 316.89 351.10 317.70 354.43
  Q 317.85 355.05 318.48 355.05
  L 326.48 355.08
  Q 327.38 355.08 327.37 355.98
  L 327.35 357.98
  Q 327.35 358.81 326.52 358.81
  L 317.69 358.74
  Q 316.87 358.73 316.86 359.56
  L 316.79 364.27
  Q 316.78 365.26 317.77 365.27
  L 326.28 365.32
  Q 326.99 365.32 327.00 366.03
  L 327.03 368.53
  Q 327.04 369.10 326.47 369.11
  L 312.75 369.19
  Q 312.27 369.19 312.26 368.70
  L 312.22 358.89
  Q 313.79 355.82 312.09 353.66
  L 312.20 345.68
  Q 312.20 345.11 312.76 344.99
  Q 315.00 344.50 317.42 345.38
  Z"
/>
<path fill="#14a28a" d="
  M 353.30 360.22
  L 357.82 367.90
  Q 358.62 369.26 357.05 369.26
  L 355.07 369.25
  Q 353.58 369.25 352.85 367.95
  C 350.98 364.60 349.43 359.28 344.44 360.30
  Q 343.84 360.43 343.84 361.04
  L 343.80 368.30
  Q 343.79 369.13 342.95 369.16
  L 340.72 369.22
  A 1.00 1.00 0.0 0 1 339.69 368.22
  L 339.77 345.52
  A 0.51 0.51 0.0 0 1 340.27 345.01
  Q 344.95 344.96 349.75 344.92
  C 358.29 344.86 362.47 355.56 353.61 359.30
  A 0.65 0.64 63.8 0 0 353.30 360.22
  Z
  M 343.83 349.75
  L 343.87 355.89
  A 0.89 0.89 0.0 0 0 344.77 356.78
  L 349.26 356.75
  A 4.44 3.85 -0.4 0 0 353.67 352.87
  L 353.67 352.65
  A 4.44 3.85 -0.4 0 0 349.20 348.83
  L 344.71 348.86
  A 0.89 0.89 0.0 0 0 343.83 349.75
  Z"
/>
</svg>
